<mxfile host="app.diagrams.net" modified="2024-04-22T22:03:23.118Z" agent="Mozilla/5.0 (Windows NT 10.0; Win64; x64) AppleWebKit/537.36 (KHTML, like Gecko) Chrome/121.0.0.0 Safari/537.36 OPR/107.0.0.0" etag="yFarWoaQUbA15NWNH4lq" version="24.2.8" type="device">
  <diagram name="Page-1" id="kJQh5obv-arDpWGPuOSI">
    <mxGraphModel dx="913" dy="1786" grid="1" gridSize="10" guides="1" tooltips="1" connect="1" arrows="1" fold="1" page="1" pageScale="1" pageWidth="827" pageHeight="1169" math="0" shadow="0">
      <root>
        <mxCell id="0" />
        <mxCell id="1" parent="0" />
        <mxCell id="OGQOdb_WMTDl0CKE0jko-1" value="" style="whiteSpace=wrap;html=1;aspect=fixed;" vertex="1" parent="1">
          <mxGeometry x="100.5" y="-130" width="627" height="627" as="geometry" />
        </mxCell>
        <mxCell id="OGQOdb_WMTDl0CKE0jko-2" value="" style="ellipse;whiteSpace=wrap;html=1;aspect=fixed;fillColor=#ffe6cc;strokeColor=#d79b00;" vertex="1" parent="1">
          <mxGeometry x="344" y="-100" width="140" height="140" as="geometry" />
        </mxCell>
        <mxCell id="OGQOdb_WMTDl0CKE0jko-3" value="&lt;h1 style=&quot;margin-top: 0px;&quot;&gt;&lt;span style=&quot;background-color: initial;&quot;&gt;Nome&lt;/span&gt;&lt;/h1&gt;&lt;h1 style=&quot;margin-top: 0px;&quot;&gt;&lt;span style=&quot;font-size: 12px; font-weight: 400;&quot;&gt;titulo&lt;/span&gt;&lt;/h1&gt;" style="text;html=1;whiteSpace=wrap;overflow=hidden;rounded=0;" vertex="1" parent="1">
          <mxGeometry x="110" y="-120" width="180" height="120" as="geometry" />
        </mxCell>
        <mxCell id="OGQOdb_WMTDl0CKE0jko-4" value="" style="rounded=1;whiteSpace=wrap;html=1;fillColor=#f5f5f5;fontColor=#333333;strokeColor=#666666;" vertex="1" parent="1">
          <mxGeometry x="109" y="70" width="610" height="280" as="geometry" />
        </mxCell>
        <mxCell id="OGQOdb_WMTDl0CKE0jko-5" value="&lt;font style=&quot;font-size: 32px;&quot;&gt;Atributos&lt;/font&gt;" style="text;html=1;align=center;verticalAlign=middle;whiteSpace=wrap;rounded=0;strokeWidth=1;" vertex="1" parent="1">
          <mxGeometry x="310" y="150" width="190" height="100" as="geometry" />
        </mxCell>
        <mxCell id="OGQOdb_WMTDl0CKE0jko-6" value="&lt;font style=&quot;font-size: 32px;&quot;&gt;Contato&lt;/font&gt;" style="text;html=1;align=center;verticalAlign=middle;whiteSpace=wrap;rounded=0;" vertex="1" parent="1">
          <mxGeometry x="159" y="380" width="510" height="80" as="geometry" />
        </mxCell>
      </root>
    </mxGraphModel>
  </diagram>
</mxfile>
